<?xml version="1.0" standalone="no"?>
<!DOCTYPE svg PUBLIC "-//W3C//DTD SVG 20010904//EN"
 "http://www.w3.org/TR/2001/REC-SVG-20010904/DTD/svg10.dtd">
<svg version="1.0" xmlns="http://www.w3.org/2000/svg"
 width="260.000000pt" height="260.000000pt" viewBox="0 0 260.000000 260.000000"
 preserveAspectRatio="xMidYMid meet">
<metadata>
Created by potrace 1.14, written by Peter Selinger 2001-2017
</metadata>
<g transform="translate(0.000000,260.000000) scale(0.100000,-0.100000)"
fill="#000000" stroke="none">
<path d="M1135 2590 c-22 -4 -43 -6 -47 -3 -5 2 -8 -1 -8 -7 0 -6 -3 -9 -8 -6
-6 4 -38 -3 -142 -29 -8 -2 -16 -4 -17 -5 -2 -2 -6 -3 -10 -4 -88 -20 -290
-123 -378 -192 -68 -55 -145 -122 -146 -128 0 -3 -19 -24 -43 -48 -47 -47
-113 -135 -147 -195 -39 -70 -83 -158 -85 -172 -2 -8 -9 -18 -16 -22 -7 -5 -9
-9 -4 -9 5 0 3 -6 -3 -13 -6 -8 -8 -16 -5 -19 3 -4 -2 -20 -11 -37 -9 -18 -13
-36 -10 -41 3 -6 2 -10 -3 -10 -5 0 -9 -6 -10 -12 -1 -19 -12 -71 -18 -87 -25
-70 -25 -432 0 -501 3 -8 8 -26 10 -40 3 -14 9 -39 15 -57 5 -17 7 -34 3 -37
-3 -3 0 -6 6 -6 7 0 12 -9 12 -20 0 -11 4 -28 9 -38 5 -9 17 -37 27 -62 10
-25 24 -52 31 -61 7 -9 10 -19 6 -23 -4 -4 -3 -10 3 -14 6 -4 24 -32 42 -62
17 -31 40 -67 52 -80 11 -12 20 -26 20 -30 0 -3 20 -28 45 -54 25 -27 45 -51
45 -53 0 -5 55 -57 105 -98 20 -16 50 -42 68 -57 18 -15 38 -28 45 -28 6 0 12
-4 12 -8 0 -5 12 -15 27 -23 16 -8 30 -16 33 -19 6 -6 103 -53 176 -86 45 -20
125 -45 189 -59 107 -24 149 -29 275 -29 143 -1 227 6 289 24 17 5 34 9 36 9
3 1 6 1 8 2 1 0 13 2 27 5 14 2 32 7 40 11 17 7 28 10 50 16 33 9 200 85 210
97 3 3 22 14 43 25 21 11 47 28 57 37 11 10 22 18 24 18 11 0 135 109 175 154
14 16 38 41 54 57 15 15 27 30 27 33 0 6 24 36 48 61 6 8 12 16 12 19 0 3 15
29 33 58 35 56 87 162 87 178 0 6 5 10 12 10 6 0 9 3 5 6 -3 4 0 23 8 43 21
53 39 123 49 181 2 14 5 25 6 25 13 0 20 317 9 385 -17 109 -26 155 -29 155
-1 0 -4 11 -7 25 -7 39 -14 58 -33 105 -5 11 -14 37 -21 58 -7 20 -17 37 -22
37 -5 0 -7 6 -4 14 3 8 -1 17 -8 20 -8 3 -12 12 -9 21 3 8 2 15 -3 15 -6 0
-18 18 -28 40 -10 22 -21 40 -25 40 -4 0 -13 13 -19 28 -7 16 -25 43 -42 61
-16 18 -29 35 -29 39 0 4 -9 14 -20 22 -11 8 -20 18 -20 22 0 10 -99 108 -110
108 -5 0 -14 9 -20 20 -6 11 -17 20 -25 20 -8 0 -15 4 -15 9 0 5 -21 23 -47
40 -27 17 -53 35 -60 41 -24 20 -225 118 -258 125 -5 2 -41 12 -80 23 -38 11
-83 23 -100 26 -16 4 -41 9 -55 11 -43 9 -323 12 -365 5z"/>
</g>
</svg>
